# Blender v2.91.0 OBJ File: ''
# www.blender.org
mtllib Waypoint.mtl
o Cube.001
v -0.691566 -1.000000 -1.474866
v 0.691566 -1.000000 -1.474866
v 0.691566 -1.000000 0.691566
v -0.691566 -1.000000 0.691566
v -1.000000 -0.691566 0.691566
v -1.000000 0.691566 0.691566
v -1.000000 0.691566 -1.474866
v -1.000000 -0.691566 -1.474866
v -1.308434 0.691566 1.000000
v -1.308434 -0.691566 1.000000
v -5.254300 -0.691566 1.000000
v -5.254300 0.691566 1.000000
v 1.308434 -0.691566 1.000000
v 1.308434 0.691566 1.000000
v 5.254300 0.691566 1.000000
v 5.254300 -0.691566 1.000000
v 0.691566 1.000000 -1.474866
v -0.691566 1.000000 -1.474866
v -0.691566 1.000000 0.691566
v 0.691566 1.000000 0.691566
v 1.000000 -0.691566 -1.474866
v 1.000000 0.691566 -1.474866
v 1.000000 0.691566 0.691566
v 1.000000 -0.691566 0.691566
v 4.884690 1.000000 1.308434
v -4.884690 1.000000 1.308434
v 0.000000 0.999999 6.911884
v -1.000000 -1.000000 1.000000
v 1.000000 -1.000000 1.000000
v 5.254300 -1.000000 1.000000
v -5.254300 -1.000000 1.000000
v 1.000000 1.000000 1.000000
v -1.000000 1.000000 1.000000
v -5.060526 1.000000 1.000000
v 5.019003 1.000000 1.000000
v -5.360059 0.691566 1.232496
v -5.360059 -0.691566 1.232497
v -0.202674 -0.691567 7.148769
v -0.202674 0.691565 7.148769
v 5.360059 -0.691566 1.232496
v 5.360059 0.691566 1.232497
v 0.202674 0.691565 7.148769
v 0.202674 -0.691567 7.148769
v -4.884690 -1.000000 1.308434
v 4.884690 -1.000000 1.308434
v 0.000000 -1.000001 6.911884
v 0.691566 0.691566 -1.783300
v 0.691566 -0.691566 -1.783300
v -0.691566 0.691566 -1.783300
v -0.691566 -0.691566 -1.783300
vt 0.163554 0.527704
vt 0.336446 0.527704
vt 0.336446 0.722296
vt 0.163554 0.722296
vt 0.413554 0.027704
vt 0.586446 0.027704
vt 0.586446 0.222296
vt 0.413554 0.222296
vt 0.586446 0.000000
vt 0.413554 0.000000
vt 0.413554 0.000000
vt 0.586446 0.000000
vt 0.413554 0.750000
vt 0.586446 0.750000
vt 0.586446 0.750000
vt 0.413554 0.750000
vt 0.663554 0.527704
vt 0.836446 0.527704
vt 0.836446 0.722296
vt 0.663554 0.722296
vt 0.413554 0.527704
vt 0.586446 0.527704
vt 0.586446 0.722296
vt 0.413554 0.722296
vt 0.634194 0.750000
vt 0.853722 0.750000
vt 0.634195 0.750000
vt 0.125000 0.750000
vt 0.375000 0.750000
vt 0.375000 0.750000
vt 0.125000 0.750000
vt 0.625000 0.750000
vt 0.875000 0.750000
vt 0.875000 0.750000
vt 0.625000 0.750000
vt 0.586446 0.000000
vt 0.413554 0.000000
vt 0.413554 0.000000
vt 0.586446 0.000000
vt 0.413554 0.750000
vt 0.586446 0.750000
vt 0.586446 0.750000
vt 0.413554 0.750000
vt 0.134195 0.750000
vt 0.353722 0.750000
vt 0.134195 0.750000
vt 0.586446 0.461446
vt 0.625000 0.461446
vt 0.586446 0.500000
vt 0.336446 0.500000
vt 0.375000 0.527704
vt 0.586446 0.250000
vt 0.586446 0.250000
vt 0.625000 0.222296
vt 0.413554 0.250000
vt 0.375000 0.222296
vt 0.625000 0.000000
vt 0.625000 0.027704
vt 0.625000 0.027704
vt 0.125000 0.750000
vt 0.125000 0.722296
vt 0.125000 0.750000
vt 0.131931 0.750000
vt 0.131931 0.750000
vt 0.125000 0.750000
vt 0.625000 0.000000
vt 0.625000 0.000000
vt 0.625000 0.000000
vt 0.365891 0.750000
vt 0.354976 0.750000
vt 0.368069 0.750000
vt 0.368069 0.750000
vt 0.134109 0.750000
vt 0.125000 0.750000
vt 0.125000 0.750000
vt 0.625000 0.750000
vt 0.586446 0.750000
vt 0.125000 0.527704
vt 0.163554 0.500000
vt 0.413554 0.461446
vt 0.586446 0.288554
vt 0.413554 0.288554
vt 0.625000 0.288554
vt 0.125000 0.750000
vt 0.413554 0.000000
vt 0.586446 0.000000
vt 0.625000 0.000000
vn 0.0000 -1.0000 -0.0000
vn -1.0000 0.0000 0.0000
vn 0.0000 0.0000 -1.0000
vn 0.0000 1.0000 0.0000
vn 1.0000 0.0000 0.0000
vn 0.0000 0.0000 1.0000
vn -0.7538 0.0000 0.6571
vn 0.7538 -0.0000 0.6571
vn 0.5774 0.5774 -0.5774
vn 0.5774 -0.5774 -0.5774
vn -0.5774 0.5774 -0.5774
vn -0.5774 -0.5774 -0.5774
vn -0.7575 -0.5382 0.3695
vn -0.6806 0.7274 0.0882
vn 0.6572 0.7529 0.0347
vn 0.7575 -0.5382 0.3695
vn 0.0000 -0.6091 0.7931
vn 0.0000 0.6091 0.7931
vn -0.7071 -0.7071 -0.0000
vn 0.0000 -0.7071 -0.7071
vn 0.7071 0.0000 -0.7071
vn -0.7071 0.0000 -0.7071
vn 0.7071 0.7071 0.0000
vn -0.7071 0.7071 0.0000
vn 0.0000 0.7071 -0.7071
vn 0.7071 -0.7071 -0.0000
vn -0.9103 -0.0000 -0.4141
vn 0.9103 0.0000 -0.4141
vn -0.5330 -0.7071 0.4646
vn 0.5330 -0.7071 0.4646
vn -0.5330 0.7071 0.4646
vn 0.5330 0.7071 0.4646
usemtl Material.001
s off
f 1/1/1 2/2/1 3/3/1 4/4/1
f 5/5/2 6/6/2 7/7/2 8/8/2
f 9/9/3 10/10/3 11/11/3 12/12/3
f 13/13/3 14/14/3 15/15/3 16/16/3
f 17/17/4 18/18/4 19/19/4 20/20/4
f 21/21/5 22/22/5 23/23/5 24/24/5
f 25/25/4 26/26/4 27/27/4
f 28/28/6 29/29/6 30/30/6 31/31/6
f 32/32/6 33/33/6 34/34/6 35/35/6
f 36/36/7 37/37/7 38/38/7 39/39/7
f 40/40/8 41/41/8 42/42/8 43/43/8
f 44/44/1 45/45/1 46/46/1
f 47/47/9 17/48/9 22/49/9
f 2/2/10 48/50/10 21/51/10
f 14/14/9 23/23/9 20/20/9 32/32/9
f 13/13/10 29/29/10 3/3/10 24/24/10
f 49/52/11 7/53/11 18/54/11
f 8/8/12 50/55/12 1/56/12
f 9/9/11 33/57/11 19/58/11 6/59/11
f 4/4/12 28/28/12 10/60/12 5/61/12
f 37/62/13 11/63/13 31/64/13 44/65/13
f 36/36/14 26/66/14 34/67/14 12/68/14
f 41/41/15 15/15/15 35/35/15 25/25/15
f 40/69/16 45/70/16 30/71/16 16/72/16
f 43/73/17 38/74/17 46/75/17
f 42/42/18 27/76/18 39/77/18
f 1/1/19 4/4/19 5/61/19 8/78/19
f 2/2/20 1/1/20 50/79/20 48/50/20
f 22/22/21 21/21/21 48/80/21 47/47/21
f 10/10/22 9/9/22 6/6/22 5/5/22
f 14/14/21 13/13/21 24/24/21 23/23/21
f 49/81/22 50/82/22 8/8/22 7/7/22
f 20/20/4 19/19/4 33/33/4 32/32/4
f 17/17/23 20/20/23 23/23/23 22/22/23
f 4/4/1 3/3/1 29/29/1 28/28/1
f 19/58/24 18/54/24 7/7/24 6/6/24
f 18/83/25 17/48/25 47/47/25 49/81/25
f 3/3/26 2/2/26 21/21/26 24/24/26
f 37/37/27 36/36/27 12/12/27 11/11/27
f 41/41/28 40/40/28 16/16/28 15/15/28
f 35/35/4 34/34/4 26/26/4 25/25/4
f 31/31/1 30/30/1 45/45/1 44/44/1
f 13/13/3 16/16/3 30/30/3 29/29/3
f 11/84/3 10/60/3 28/28/3 31/31/3
f 9/9/3 12/12/3 34/67/3 33/57/3
f 15/15/3 14/14/3 32/32/3 35/35/3
f 43/85/6 42/86/6 39/39/6 38/38/6
f 38/74/29 37/62/29 44/44/29 46/46/29
f 40/69/30 43/73/30 46/46/30 45/45/30
f 36/36/31 39/39/31 27/87/31 26/66/31
f 25/25/32 27/27/32 42/42/32 41/41/32
f 50/82/3 49/81/3 47/47/3 48/80/3
